<svg width="52" height="52" viewBox="0 0 52 52" fill="none" xmlns="http://www.w3.org/2000/svg">
<circle cx="26" cy="26" r="26" fill="#870000"/>
<path fill-rule="evenodd" clip-rule="evenodd" d="M25.2498 31.2901C27.8659 31.2901 29.9867 29.1694 29.9867 26.5533C29.9867 23.9372 27.8659 21.8165 25.2498 21.8165C22.6338 21.8165 20.513 23.9372 20.513 26.5533C20.513 29.1694 22.6338 31.2901 25.2498 31.2901ZM25.2498 33.8368C29.2724 33.8368 32.5334 30.5759 32.5334 26.5533C32.5334 22.5307 29.2724 19.2698 25.2498 19.2698C21.2273 19.2698 17.9663 22.5307 17.9663 26.5533C17.9663 30.5759 21.2273 33.8368 25.2498 33.8368Z" fill="white"/>
<path fill-rule="evenodd" clip-rule="evenodd" d="M32.3296 37.3004L25.1989 27.9285L27.2256 26.3865L34.3563 35.7583L32.3296 37.3004Z" fill="white"/>
<path fill-rule="evenodd" clip-rule="evenodd" d="M28.2819 36.3857C27.338 36.6494 26.3382 36.791 25.3006 36.791C19.3274 36.791 14.6045 32.0967 14.6045 26.4514C14.6045 20.8061 19.3274 16.1119 25.3006 16.1119C31.2739 16.1119 35.9967 20.8061 35.9967 26.4514C35.9967 30.1768 33.9401 33.4879 30.8247 35.3093L32.4176 37.3205C36.101 35.032 38.5434 31.0193 38.5434 26.4514C38.5434 19.3346 32.6144 13.5652 25.3006 13.5652C17.9869 13.5652 12.0579 19.3346 12.0579 26.4514C12.0579 33.5683 17.9869 39.3377 25.3006 39.3377C26.9075 39.3377 28.4476 39.0592 29.8726 38.5491L28.2819 36.3857Z" fill="white"/>
</svg>
