<svg width="36" height="35" viewBox="0 0 36 35" fill="none" xmlns="http://www.w3.org/2000/svg">
<path fill-rule="evenodd" clip-rule="evenodd" d="M17.5045 23.5194C20.9759 23.5194 23.7899 20.7054 23.7899 17.234C23.7899 13.7627 20.9759 10.9486 17.5045 10.9486C14.0332 10.9486 11.2191 13.7627 11.2191 17.234C11.2191 20.7054 14.0332 23.5194 17.5045 23.5194ZM17.5045 26.8987C22.8422 26.8987 27.1692 22.5717 27.1692 17.234C27.1692 11.8964 22.8422 7.56934 17.5045 7.56934C12.1669 7.56934 7.83984 11.8964 7.83984 17.234C7.83984 22.5717 12.1669 26.8987 17.5045 26.8987Z" fill="white"/>
<path fill-rule="evenodd" clip-rule="evenodd" d="M26.8988 31.4946L17.4369 19.0589L20.1262 17.0127L29.5881 29.4484L26.8988 31.4946Z" fill="white"/>
<path fill-rule="evenodd" clip-rule="evenodd" d="M21.528 30.2811C20.2755 30.6309 18.9489 30.8188 17.5721 30.8188C9.6461 30.8188 3.37926 24.5899 3.37926 17.099C3.37926 9.60816 9.6461 3.37926 17.5721 3.37926C25.4982 3.37926 31.765 9.60816 31.765 17.099C31.765 22.0423 29.036 26.4359 24.9021 28.8528L27.0158 31.5215C31.9033 28.4848 35.1443 23.1602 35.1443 17.099C35.1443 7.6555 27.277 0 17.5721 0C7.86732 0 0 7.6555 0 17.099C0 26.5426 7.86732 34.1981 17.5721 34.1981C19.7044 34.1981 21.7479 33.8286 23.6388 33.1517L21.528 30.2811Z" fill="white"/>
</svg>
